<?xml version="1.0" encoding="UTF-8" standalone="no"?>
<!-- Created with Inkscape (http://www.inkscape.org/) -->

<svg
   width="77.439438mm"
   height="77.439438mm"
   viewBox="0 0 77.439438 77.439438"
   version="1.1"
   id="svg1"
   inkscape:version="1.3.2 (091e20ef0f, 2023-11-25, custom)"
   sodipodi:docname="hat.svg"
   xmlns:inkscape="http://www.inkscape.org/namespaces/inkscape"
   xmlns:sodipodi="http://sodipodi.sourceforge.net/DTD/sodipodi-0.dtd"
   xmlns="http://www.w3.org/2000/svg"
   xmlns:svg="http://www.w3.org/2000/svg">
  <sodipodi:namedview
     id="namedview1"
     pagecolor="#ffffff"
     bordercolor="#000000"
     borderopacity="0.25"
     inkscape:showpageshadow="2"
     inkscape:pageopacity="0.0"
     inkscape:pagecheckerboard="0"
     inkscape:deskcolor="#d1d1d1"
     inkscape:document-units="mm"
     inkscape:zoom="2.0739057"
     inkscape:cx="237.47463"
     inkscape:cy="132.60005"
     inkscape:window-width="2560"
     inkscape:window-height="1368"
     inkscape:window-x="1920"
     inkscape:window-y="0"
     inkscape:window-maximized="1"
     inkscape:current-layer="layer1" />
  <defs
     id="defs1" />
  <g
     inkscape:label="Layer 1"
     inkscape:groupmode="layer"
     id="layer1"
     transform="translate(-77.001892,-62.918175)">
    <path
       id="path3-1"
       style="color:#000000;display:inline;overflow:visible;visibility:visible;fill:#ffffff;fill-opacity:1;stroke:#ffffff;stroke-width:10.9;stroke-linecap:butt;stroke-linejoin:round;stroke-miterlimit:4;stroke-dasharray:none;stroke-dashoffset:0;stroke-opacity:1;marker:none;enable-background:accumulate"
       d="m 122.63291,95.104214 c 4.35829,-0.0307 1.23541,-3.355455 0.068,-3.163635 -1.82123,4.57e-4 -3.13825,2.367575 -0.068,3.163635 z m -0.84104,-1.547261 c -4.88827,1.00436 -9.68792,1.43259 -15.08229,4.1243 -3.17775,1.58565 -5.21669,4.017047 -6.66109,7.027487 -2.895669,6.03513 -3.822499,10.7677 -5.052919,16.11736 3.7547,-3.11766 8.883439,-2.65201 13.031759,-2.43189 1.37016,0.0727 2.66991,0.14611 3.9455,0.22117 l -17.058389,2.24586 c -1.87261,1.20374 -7.47014,5.12228 -9.8702,6.79287 7.90813,-4.99918 15.663089,0.031 17.607189,0.88676 14.0674,6.96324 16.3447,3.67734 18.22163,2.97915 8.44552,-6.31531 9.42949,-6.91498 13.69374,-10.39213 l -10.84534,-1.60559 c 5.05126,0.52064 9.67142,1.22011 14.6079,2.29702 4.83811,1.05546 7.42063,1.87077 10.32598,3.47627 -1.17176,-6.66163 -2.37931,-12.85535 -4.52168,-19.33318 -1.12037,-3.3876 -3.34946,-6.869507 -7.94784,-8.947267 -3.64219,-1.64574 -8.45055,-2.95923 -14.39395,-3.45819 z M 85.044241,127.65411 c -0.35786,0.22622 -0.71588,0.46567 -1.07384,0.73432 -0.20019,0.15024 0.25725,-0.16593 1.07384,-0.73432 z m 30.379539,-8.8191 c 0.71053,0.0476 1.41977,0.0972 2.10581,0.14779 z m -18.491379,7.321 -13.10049,2.38951 c -1.12134,1.34858 -1.61922,4.30097 0.54054,5.36143 0.0378,0.0185 0.88811,0.40847 1.45469,0.15297 2.4856,-1.12102 9.65381,-6.69846 11.10526,-7.90391 z"
       sodipodi:nodetypes="ccccsccscccccccscssccsccccccccc" />
    <path
       id="path3"
       style="color:#000000;display:inline;overflow:visible;visibility:visible;fill:#4d3f31;fill-opacity:1;stroke:#000000;stroke-width:5;stroke-linecap:butt;stroke-linejoin:round;stroke-miterlimit:4;stroke-dasharray:none;stroke-dashoffset:0;stroke-opacity:1;marker:none;enable-background:accumulate"
       d="m 83.847724,128.54687 c -1.121343,1.34858 -1.6193,4.30096 0.540462,5.36143 0.03781,0.0185 0.888093,0.40827 1.454674,0.15277 2.485612,-1.12102 9.654069,-6.69826 11.105523,-7.90372"
       sodipodi:nodetypes="cccc" />
    <path
       id="path2"
       style="color:#000000;display:inline;overflow:visible;visibility:visible;fill:#4d3f31;fill-opacity:1;stroke:#000000;stroke-width:5;stroke-linecap:butt;stroke-linejoin:round;stroke-miterlimit:4;stroke-dasharray:none;stroke-dashoffset:0;stroke-opacity:1;marker:none;enable-background:accumulate"
       d="m 94.930218,120.86255 c -2.509748,1.6133 -11.732562,8.11874 -10.943989,7.52692 8.268398,-6.20533 16.649021,-0.7417 18.681101,0.15277 14.06741,6.96324 16.34479,3.6772 18.22172,2.97901 8.44553,-6.31532 9.42904,-6.91511 13.69329,-10.39226 l -12.19824,-1.80545 -10.28403,-0.72169"
       sodipodi:nodetypes="csccc" />
    <path
       id="path1-9"
       style="color:#000000;display:inline;overflow:visible;visibility:visible;opacity:0.185379;fill:none;fill-opacity:1;stroke:#000000;stroke-width:2;stroke-linecap:round;stroke-linejoin:round;stroke-miterlimit:4;stroke-dasharray:none;stroke-dashoffset:0;stroke-opacity:1;marker:none;enable-background:accumulate"
       d="m 91.693843,122.71148 c 5.15372,-1.4747 9.669177,0.95829 11.514587,1.76598 10.3028,4.95676 13.91052,4.57355 16.09087,3.23097 4.7197,-3.04441 8.40084,-6.56122 9.46609,-7.51745"
       sodipodi:nodetypes="cccc" />
    <path
       id="path1-2-3"
       style="color:#000000;display:inline;overflow:visible;visibility:visible;opacity:0.185379;fill:none;fill-opacity:1;stroke:#000000;stroke-width:2;stroke-linecap:round;stroke-linejoin:round;stroke-miterlimit:4;stroke-dasharray:none;stroke-dashoffset:0;stroke-opacity:1;marker:none;enable-background:accumulate"
       d="m 94.679451,120.98227 c 5.187365,-1.03831 8.794389,0.85758 10.639799,1.66528 6.33266,3.04339 10.7815,3.33153 12.96185,1.98895 4.46206,-3.58105 4.9995,-4.05569 6.06475,-5.01191"
       sodipodi:nodetypes="cccc" />
    <path
       style="color:#000000;display:inline;overflow:visible;visibility:visible;fill:#c6bea8;fill-opacity:1;stroke:#000000;stroke-width:5;stroke-linecap:butt;stroke-linejoin:round;stroke-dasharray:none;marker:none;enable-background:accumulate"
       d="m 95.011133,120.82735 c 1.230421,-5.34966 2.157428,-10.0821 5.053097,-16.11724 1.4444,-3.01044 3.4831,-5.441784 6.66086,-7.027432 5.39437,-2.691709 10.19443,-3.12043 15.0827,-4.124785 5.94341,0.498954 10.75143,1.81247 14.39362,3.458207 4.59838,2.07776 6.82755,5.55968 7.94792,8.94728 2.14238,6.47784 3.34992,12.67193 4.52168,19.33357 -2.90536,-1.60551 -5.48773,-2.42114 -10.32585,-3.4766 -9.48854,-2.06995 -17.76729,-2.75969 -30.30206,-3.42482 -4.14833,-0.22012 -9.27727,-0.68584 -13.031967,2.43182 z"
       id="path2996-6"
       inkscape:connector-curvature="0"
       sodipodi:nodetypes="csscsscssc" />
    <path
       style="color:#000000;display:inline;overflow:visible;visibility:visible;fill:none;stroke:#000000;stroke-width:3;stroke-linecap:round;stroke-linejoin:round;stroke-miterlimit:4;stroke-dasharray:none;stroke-dashoffset:0;stroke-opacity:1;marker:none;enable-background:accumulate"
       d="m 134.42148,116.24371 c -0.59725,-7.23738 -0.36149,-9.38535 -6.3719,-17.270974"
       id="path2998-0"
       inkscape:connector-curvature="0"
       sodipodi:nodetypes="cc" />
    <path
       style="color:#000000;display:inline;overflow:visible;visibility:visible;fill:none;stroke:#000000;stroke-width:3;stroke-linecap:round;stroke-linejoin:round;stroke-miterlimit:4;stroke-dasharray:none;stroke-dashoffset:0;stroke-opacity:1;marker:none;enable-background:accumulate"
       d="m 104.84175,113.15253 c 3.81931,-8.97552 6.14952,-10.61969 11.99844,-14.578569"
       id="path2998-2-6"
       inkscape:connector-curvature="0"
       sodipodi:nodetypes="cc" />
    <path
       style="color:#000000;display:inline;overflow:visible;visibility:visible;fill:none;fill-opacity:1;stroke:#000000;stroke-width:3;stroke-linecap:round;stroke-linejoin:round;stroke-miterlimit:4;stroke-dasharray:none;stroke-dashoffset:0;stroke-opacity:1;marker:none;enable-background:accumulate"
       d="m 122.85878,91.12025 c 1.79082,0.05581 3.05999,1.86526 -0.28343,1.061477 -3.0296,0.388829 -1.91733,-1.13007 0.28343,-1.061477 z"
       id="path2998-5-2"
       inkscape:connector-curvature="0"
       sodipodi:nodetypes="scs" />
    <path
       style="color:#000000;display:inline;overflow:visible;visibility:visible;fill:#b7b1a3;fill-opacity:1;stroke:#000000;stroke-width:0.602073;stroke-linecap:round;stroke-linejoin:round;stroke-miterlimit:4;stroke-dasharray:none;stroke-dashoffset:0;stroke-opacity:1;marker:none;enable-background:accumulate"
       d="m 110.57279,98.128112 c 0.0814,0.140626 -0.52279,0.602395 -0.63468,0.409059 -0.0832,-0.143711 0.55799,-0.541557 0.63468,-0.409059 z"
       id="path2998-5-3-5-8"
       inkscape:connector-curvature="0"
       sodipodi:nodetypes="scs" />
  </g>
</svg>
