<?xml version="1.0" encoding="UTF-8" standalone="no"?>
<!-- Created with Inkscape (http://www.inkscape.org/) -->

<svg
   width="68.43589mm"
   height="31.34441mm"
   viewBox="0 0 68.435891 31.344411"
   version="1.1"
   id="svg1"
   inkscape:version="1.3.2 (091e20ef0f, 2023-11-25, custom)"
   sodipodi:docname="x.svg"
   xmlns:inkscape="http://www.inkscape.org/namespaces/inkscape"
   xmlns:sodipodi="http://sodipodi.sourceforge.net/DTD/sodipodi-0.dtd"
   xmlns="http://www.w3.org/2000/svg"
   xmlns:svg="http://www.w3.org/2000/svg">
  <sodipodi:namedview
     id="namedview1"
     pagecolor="#ffffff"
     bordercolor="#000000"
     borderopacity="0.25"
     inkscape:showpageshadow="2"
     inkscape:pageopacity="0.0"
     inkscape:pagecheckerboard="0"
     inkscape:deskcolor="#d1d1d1"
     inkscape:document-units="mm"
     inkscape:zoom="2.9783004"
     inkscape:cx="157.30448"
     inkscape:cy="76.217966"
     inkscape:window-width="2560"
     inkscape:window-height="1368"
     inkscape:window-x="0"
     inkscape:window-y="0"
     inkscape:window-maximized="1"
     inkscape:current-layer="layer1" />
  <defs
     id="defs1" />
  <g
     inkscape:label="Layer 1"
     inkscape:groupmode="layer"
     id="layer1"
     transform="translate(-108.73151,-108.22245)">
    <rect
       style="fill:#ffffff;stroke:none;stroke-width:0.499999;stroke-dasharray:none"
       id="rect29-4-6-8-3-6"
       width="8.6155415"
       height="6.5371332"
       x="-147.25722"
       y="-135.58406"
       transform="scale(-1)"
       inkscape:label="X31" />
    <text
       xml:space="preserve"
       style="font-style:normal;font-variant:normal;font-weight:normal;font-stretch:normal;font-size:3.52778px;line-height:1;letter-spacing:0px;fill:#000000;fill-opacity:1;stroke:none;stroke-width:0.999996"
       x="142.97061"
       y="133.56786"
       id="text4-3-2-2-1-84-7"><tspan
         sodipodi:role="line"
         id="tspan4-8-4-0-1-6-2"
         style="font-style:normal;font-variant:normal;font-weight:normal;font-stretch:normal;font-size:3.52778px;text-align:center;text-anchor:middle;fill:#000000;stroke:none;stroke-width:0.999996"
         x="142.97061"
         y="133.56786"
         inkscape:label="x31">3.23</tspan></text>
    <rect
       style="fill:#ffffff;stroke:none;stroke-width:0.499999;stroke-dasharray:none"
       id="rect29-3-4-8-0"
       width="8.6155415"
       height="6.5371332"
       x="-155.87277"
       y="-135.58406"
       transform="scale(-1)"
       inkscape:label="X32" />
    <text
       xml:space="preserve"
       style="font-style:normal;font-variant:normal;font-weight:normal;font-stretch:normal;font-size:3.52778px;line-height:1;letter-spacing:0px;fill:#000000;fill-opacity:1;stroke:none;stroke-width:0.999996"
       x="151.58617"
       y="133.56786"
       id="text4-3-2-2-1-84-0"><tspan
         sodipodi:role="line"
         id="tspan4-8-4-0-1-6-5"
         style="font-style:normal;font-variant:normal;font-weight:normal;font-stretch:normal;font-size:3.52778px;text-align:center;text-anchor:middle;fill:#000000;stroke:none;stroke-width:0.999996"
         x="151.58617"
         y="133.56786"
         inkscape:label="x32">3.23</tspan></text>
    <rect
       style="fill:#ffffff;stroke:none;stroke-width:0.499999;stroke-dasharray:none"
       id="rect29-9-3-9-8-8-8"
       width="8.6155415"
       height="6.5371332"
       x="-147.25722"
       y="-127.85369"
       transform="scale(-1)"
       inkscape:label="X21" />
    <text
       xml:space="preserve"
       style="font-style:normal;font-variant:normal;font-weight:normal;font-stretch:normal;font-size:3.52778px;line-height:1;letter-spacing:0px;fill:#000000;fill-opacity:1;stroke:none;stroke-width:0.999996"
       x="142.97061"
       y="125.83749"
       id="text4-3-2-2-1-84-43"><tspan
         sodipodi:role="line"
         id="tspan4-8-4-0-1-6-9"
         style="font-style:normal;font-variant:normal;font-weight:normal;font-stretch:normal;font-size:3.52778px;text-align:center;text-anchor:middle;fill:#000000;stroke:none;stroke-width:0.999996"
         x="142.97061"
         y="125.83749"
         inkscape:label="x21">3.23</tspan></text>
    <rect
       style="fill:#ffffff;stroke:none;stroke-width:0.499999;stroke-dasharray:none"
       id="rect29-9-1-1-6-4"
       width="8.6155415"
       height="6.5371332"
       x="-155.87277"
       y="-127.85369"
       transform="scale(-1)"
       inkscape:label="X22" />
    <text
       xml:space="preserve"
       style="font-style:normal;font-variant:normal;font-weight:normal;font-stretch:normal;font-size:3.52778px;line-height:1;letter-spacing:0px;fill:#000000;fill-opacity:1;stroke:none;stroke-width:0.999996"
       x="151.58617"
       y="125.83749"
       id="text4-3-2-2-1-84-5"><tspan
         sodipodi:role="line"
         id="tspan4-8-4-0-1-6-7"
         style="font-style:normal;font-variant:normal;font-weight:normal;font-stretch:normal;font-size:3.52778px;text-align:center;text-anchor:middle;fill:#000000;stroke:none;stroke-width:0.999996"
         x="151.58617"
         y="125.83749"
         inkscape:label="x22">3.23</tspan></text>
    <rect
       style="fill:#ffffff;stroke:none;stroke-width:0.499999;stroke-dasharray:none"
       id="rect29-5-4-2-8-7"
       width="8.6155415"
       height="6.5371332"
       x="-155.87277"
       y="-120.12332"
       transform="scale(-1)"
       inkscape:label="X12" />
    <text
       xml:space="preserve"
       style="font-style:normal;font-variant:normal;font-weight:normal;font-stretch:normal;font-size:3.52778px;line-height:1;letter-spacing:0px;fill:#000000;fill-opacity:1;stroke:none;stroke-width:0.999996"
       x="151.58617"
       y="118.10712"
       id="text4-3-2-2-1-84-8"><tspan
         sodipodi:role="line"
         id="tspan4-8-4-0-1-6-3"
         style="font-style:normal;font-variant:normal;font-weight:normal;font-stretch:normal;font-size:3.52778px;text-align:center;text-anchor:middle;fill:#000000;stroke:none;stroke-width:0.999996"
         x="151.58617"
         y="118.10712"
         inkscape:label="x12">3.23</tspan></text>
    <rect
       style="fill:#ffffff;stroke:none;stroke-width:0.499999;stroke-dasharray:none"
       id="rect29-5-5-4-9-3-9"
       width="8.6155415"
       height="6.5371332"
       x="-147.25722"
       y="-120.12332"
       transform="scale(-1)"
       inkscape:label="X11" />
    <text
       xml:space="preserve"
       style="font-style:normal;font-variant:normal;font-weight:normal;font-stretch:normal;font-size:3.52778px;line-height:1;letter-spacing:0px;fill:#000000;fill-opacity:1;stroke:none;stroke-width:0.999996"
       x="142.97061"
       y="118.10712"
       id="text4-3-2-2-1-84-4"><tspan
         sodipodi:role="line"
         id="tspan4-8-4-0-1-6-4"
         style="font-style:normal;font-variant:normal;font-weight:normal;font-stretch:normal;font-size:3.52778px;text-align:center;text-anchor:middle;fill:#000000;stroke:none;stroke-width:0.999996"
         x="142.97061"
         y="118.10712"
         inkscape:label="x11">3.23</tspan></text>
    <text
       xml:space="preserve"
       style="font-style:normal;font-variant:normal;font-weight:normal;font-stretch:normal;font-size:3.52778px;line-height:1;text-align:end;letter-spacing:0px;text-anchor:end;fill:#000000;fill-opacity:1;stroke:none;stroke-width:0.999996"
       x="102.78534"
       y="149.48424"
       id="text4-3-2-2-1-84-4-6"
       transform="rotate(-15)"><tspan
         sodipodi:role="line"
         id="tspan4-8-4-0-1-6-4-2"
         style="font-style:normal;font-variant:normal;font-weight:normal;font-stretch:normal;font-size:3.52778px;text-align:end;text-anchor:end;fill:#000000;stroke:none;stroke-width:0.999996"
         x="102.78534"
         y="149.48424"
         inkscape:label="word1">word1</tspan></text>
    <text
       xml:space="preserve"
       style="font-style:normal;font-variant:normal;font-weight:normal;font-stretch:normal;font-size:3.52778px;line-height:1;text-align:end;letter-spacing:0px;text-anchor:end;fill:#000000;fill-opacity:1;stroke:none;stroke-width:0.999996"
       x="100.19367"
       y="156.98412"
       id="text4-3-2-2-1-84-4-6-8"
       transform="rotate(-15)"><tspan
         sodipodi:role="line"
         id="tspan4-8-4-0-1-6-4-2-7"
         style="font-style:normal;font-variant:normal;font-weight:normal;font-stretch:normal;font-size:3.52778px;text-align:end;text-anchor:end;fill:#000000;stroke:none;stroke-width:0.999996"
         x="100.19367"
         y="156.98412"
         inkscape:label="word2">word2</tspan></text>
    <text
       xml:space="preserve"
       style="font-style:normal;font-variant:normal;font-weight:normal;font-stretch:normal;font-size:3.52778px;line-height:1;text-align:end;letter-spacing:0px;text-anchor:end;fill:#000000;fill-opacity:1;stroke:none;stroke-width:0.999996"
       x="98.201721"
       y="164.44872"
       id="text4-3-2-2-1-84-4-6-2"
       transform="rotate(-15)"><tspan
         sodipodi:role="line"
         id="tspan4-8-4-0-1-6-4-2-3"
         style="font-style:normal;font-variant:normal;font-weight:normal;font-stretch:normal;font-size:3.52778px;text-align:end;text-anchor:end;fill:#000000;stroke:none;stroke-width:0.999996"
         x="98.201721"
         y="164.44872"
         inkscape:label="word3">word3</tspan></text>
    <path
       d="m 155.63915,134.93426 v 0.26445 c 0,0.10276 -0.17307,0.15112 -0.52415,0.15112 h -15.78106 c -0.31152,0 -0.44009,-0.0393 -0.44009,-0.13752 v -0.27805 h -0.25218 v 0.64981 h 17.24966 v -0.64981 z"
       id="path4-8"
       sodipodi:nodetypes="csssscccccc"
       style="fill:#000000;fill-opacity:1;stroke-width:0.352779" />
    <path
       d="m 155.63915,129.69674 v -0.26446 c 0,-0.10276 -0.17307,-0.15112 -0.52415,-0.15112 h -15.78106 c -0.31152,0 -0.44009,0.0393 -0.44009,0.13752 v 0.27806 h -0.25218 v -0.64981 h 17.24966 v 0.64981 z"
       id="path4-4-9"
       sodipodi:nodetypes="csssscccccc"
       style="fill:#000000;fill-opacity:1;stroke-width:0.352779" />
    <path
       d="m 155.63915,127.20389 v 0.26445 c 0,0.10276 -0.17307,0.15112 -0.52415,0.15112 h -15.78106 c -0.31152,0 -0.44009,-0.0393 -0.44009,-0.13752 v -0.27805 h -0.25218 v 0.6498 h 17.24966 v -0.6498 z"
       id="path4-46-3"
       sodipodi:nodetypes="csssscccccc"
       style="fill:#000000;fill-opacity:1;stroke-width:0.352779" />
    <path
       d="m 155.63915,121.96637 v -0.26446 c 0,-0.10276 -0.17307,-0.15112 -0.52415,-0.15112 h -15.78106 c -0.31152,0 -0.44009,0.0393 -0.44009,0.13752 v 0.27806 h -0.25218 v -0.64981 h 17.24966 v 0.64981 z"
       id="path4-4-2-7"
       sodipodi:nodetypes="csssscccccc"
       style="fill:#000000;fill-opacity:1;stroke-width:0.352779" />
    <path
       d="m 155.63915,119.47352 v 0.26446 c 0,0.10276 -0.17307,0.15112 -0.52415,0.15112 h -15.78106 c -0.31152,0 -0.44009,-0.0393 -0.44009,-0.13752 v -0.27806 h -0.25218 v 0.64981 h 17.24966 v -0.64981 z"
       id="path4-48-6"
       sodipodi:nodetypes="csssscccccc"
       style="fill:#000000;fill-opacity:1;stroke-width:0.352779" />
    <path
       d="m 155.63915,114.236 v -0.26445 c 0,-0.10276 -0.17307,-0.15112 -0.52415,-0.15112 h -15.78106 c -0.31152,0 -0.44009,0.0393 -0.44009,0.13752 v 0.27805 h -0.25218 v -0.64981 h 17.24966 v 0.64981 z"
       id="path4-4-28-26"
       sodipodi:nodetypes="csssscccccc"
       style="fill:#000000;fill-opacity:1;stroke-width:0.352779" />
    <g
       id="use10"
       transform="matrix(0.17132078,0,0,0.17132078,145.40348,111.99125)"
       style="fill:#000000;fill-opacity:1;stroke-width:2.05916">
      <path
         d="m -1.21875,0 h 7.25 l 0.3125,-1.53125 H 6.25 C 5.609375,-1.53125 5.203125,-1.625 5,-1.75 4.8125,-1.875 4.6875,-2.140625 4.6875,-2.390625 c 0,-0.25 0.125,-0.578125 0.3125,-0.890625 0.203125,-0.328125 0.484375,-0.640625 0.828125,-1.015625 L 9.84375,-8.484375 11.609375,-4.5 c 0.15625,0.390625 0.28125,0.734375 0.375,1.0625 0.09375,0.34375 0.15625,0.671875 0.15625,0.921875 0,0.671875 -0.5625,0.984375 -1.65625,0.984375 h -0.40625 L 9.75,0 h 9.46875 l 0.328125,-1.53125 H 19.15625 c -0.375,0 -0.703125,-0.125 -1.078125,-0.3125 C 17.71875,-2.046875 17.4375,-2.421875 17.1875,-3.03125 L 13.640625,-11.25 19.0625,-16.921875 c 0.703125,-0.765625 1.28125,-1.28125 1.71875,-1.59375 0.453125,-0.296875 0.953125,-0.453125 1.5,-0.453125 h 0.25 L 22.859375,-20.5 H 16.1875 l -0.3125,1.53125 h 0.0625 c 0.921875,0 1.40625,0.265625 1.40625,0.734375 0,0.25 -0.125,0.578125 -0.328125,0.859375 -0.1875,0.359375 -0.4375,0.609375 -0.703125,0.859375 l -3.375,3.640625 -1.53125,-3.578125 c -0.34375,-0.796875 -0.5,-1.359375 -0.5,-1.71875 0,-0.53125 0.4375,-0.796875 1.328125,-0.796875 H 12.90625 L 13.234375,-20.5 h -9.5 l -0.328125,1.53125 h 0.265625 c 0.53125,0 0.984375,0.09375 1.328125,0.265625 0.328125,0.125 0.609375,0.53125 0.890625,1.203125 l 3.21875,7.359375 -6.34375,6.578125 c -0.71875,0.75 -1.328125,1.296875 -1.78125,1.625 -0.46875,0.28125 -1.015625,0.40625 -1.59375,0.40625 h -0.28125 z m 0,0"
         id="path21"
         style="stroke-width:2.05916" />
    </g>
  </g>
</svg>
